<svg width="360" height="199" fill="none" xmlns="http://www.w3.org/2000/svg" xmlns:xlink="http://www.w3.org/1999/xlink">
	<!--rect x="0" y="0" width="360" height="199" fill="blue" mask="url(#mask1)"/-->
	<g mask="url(#mask1)">
		<g filter="url(#filter1)">
    		<path
        	 d="m 20,20 h 320 v 155 c 0,2.209 -1.791,4 -4,4 H 24 c -2.209,0 -4,-1.791 -4,-4 z"
	         id="path3852"
    	     style="display:inline;fill:#ffffff" />
      		<path
	         d="m 20.5,20.5 h 319 v 155 c 0,1.933 -1.567,3.5 -3.5,3.5 H 24 c -1.933,0 -3.5,-1.567 -3.5,-3.5 z"
	         id="path3854"
    	     style="display:inline;stroke:#1f2041;stroke-opacity:0.5" />
		</g>
	</g>
	<path
   		d="m 20,20 h 320 v 155 c 0,2.209 -1.791,4 -4,4 H 24 c -2.209,0 -4,-1.791 -4,-4 z"
		id="path3852"
    	style="display:inline;fill:#ffffff" />
    <path
	    d="m 20.5,20.5 h 319 v 155 c 0,1.933 -1.567,3.5 -3.5,3.5 H 24 c -1.933,0 -3.5,-1.567 -3.5,-3.5 z"
	    id="path3854"
        style="display:inline;stroke:#1f2041;stroke-opacity:0.5" />
	<defs>
		<mask id="mask1">
			<rect x="0" y="0" width="360" height="199" fill="url(#linGrad1)"></rect>
		</mask>
		<linearGradient id="linGrad1" x1="100%" y1="0%" x2="100%" y2="100%">
			<stop offset="10%" stop-color="white" stop-opacity="0"/>
			<stop offset="20%" stop-color="white" stop-opacity="1"/>
		</linearGradient>
		<filter id="filter1" x="0" y="21" width="360" height="178" filterUnits="userSpaceOnUse" color-interpolation-filters="sRGB">
			<!--feFlood flood-opacity="0.001" result="BackgroundImageFix"/-->
			<feColorMatrix in="SourceAlpha" type="matrix" values="0 0 0 0 0 0 0 0 0 0 0 0 0 0 0 0 0 0 0.8 0"/>
			<feOffset dy="0" />
			<feGaussianBlur stdDeviation="7"/>
			<!--feColorMatrix type="matrix" values="0 0 0 0 0 0 0 0 0 0 0 0 0 0 0 0 0 0 0.2 0"/-->
			<!--feBlend mode="normal" in2="BackgroundImageFix" result="effect1_dropShadow"/>
			<feBlend mode="normal" in="SourceGraphic" in2="effect1_dropShadow" result="shape"/-->
			<feBlend mode="normal" in="SourceGraphic" result="shape"/>
		</filter>
		<filter id="filter2" x="0" y="0" width="360" height="199" filterUnits="userSpaceOnUse" color-interpolation-filters="sRGB">
			<!--feFlood flood-opacity="0.001" result="BackgroundImageFix"/>
			<feColorMatrix in="SourceAlpha" type="matrix" values="0 0 0 0 0 0 0 0 0 0 0 0 0 0 0 0 0 0 0.8 0"/>
			<feOffset dy="0" /-->
			<feGaussianBlur in="SourceAlpha" stdDeviation="7"/>
			<!--feColorMatrix type="matrix" values="0 0 0 0 0 0 0 0 0 0 0 0 0 0 0 0 0 0 0.2 0"/-->
			<!--feBlend mode="normal" in2="BackgroundImageFix" result="effect1_dropShadow"/>
			<feBlend mode="normal" in="SourceGraphic" in2="effect1_dropShadow" result="shape"/-->
			<feBlend mode="normal" in="SourceGraphic" result="shape"/>
		</filter>
	</defs>
</svg>
